<?xml version="1.0" encoding="UTF-8"?>
<svg width="700pt" height="700pt" version="1.1" viewBox="0 0 700 700" xmlns="http://www.w3.org/2000/svg" xmlns:xlink="http://www.w3.org/1999/xlink">
 <g>
  <path d="m185.36 280c0 4.4805 0 8.9609 0.55859 13.441h328.16c0.55859-4.4805 0.55859-8.9609 0.55859-13.441s0-8.9609-0.55859-13.441h-328.16c0 4.4805-0.5625 8.9609-0.5625 13.441z"/>
  <path d="m189.28 244.16h320.88c-2.2383-9.5195-5.0391-18.48-8.3984-26.879h-304.08c-3.3594 8.3984-6.1602 17.359-8.3984 26.879z"/>
  <path d="m229.6 392.56h240.24c7.8398-8.3984 14.559-17.359 20.719-26.879h-281.12c5.5977 9.5195 12.879 18.48 20.16 26.879z"/>
  <path d="m197.68 342.72h304.08c3.3594-8.3984 6.1602-17.359 8.3984-26.879h-320.88c2.2383 9.5195 5.0391 18.48 8.3984 26.879z"/>
  <path d="m350 444.64c34.719 0 67.199-11.199 94.078-29.68h-188.16c26.879 18.48 59.359 29.68 94.078 29.68z"/>
  <path d="m209.44 194.32h281.12c-6.1602-9.5195-12.879-18.48-20.719-26.879h-240.24c-7.2812 8.3984-14.562 17.359-20.16 26.879z"/>
  <path d="m350 115.36c-34.719 0-67.199 11.199-94.078 29.68h188.16c-26.883-18.48-59.363-29.68-94.082-29.68z"/>
  <path d="m591.36 414.96v-22.398l-120.96-0.003906c-7.8398 8.3984-16.801 16.238-26.32 22.398z"/>
  <path d="m108.64 392.56v22.398h147.28c-9.5195-6.7188-18.48-14-26.32-22.398z"/>
  <path d="m108.64 342.72v22.398h100.8c-4.4805-7.2812-8.3984-14.559-11.762-22.398z"/>
  <path d="m591.36 365.68v-22.398h-89.602c-3.3594 7.8398-7.2812 15.68-11.762 22.398z"/>
  <path d="m108.64 293.44v22.398h81.199c-1.6797-7.2812-2.8008-15.121-3.3594-22.398z"/>
  <path d="m591.36 315.84v-22.398h-77.281c-0.55859 7.8398-1.6797 15.121-3.3594 22.398z"/>
  <path d="m591.36 266.56v-22.398h-80.641c1.6797 7.2812 2.8008 15.121 3.3594 22.398z"/>
  <path d="m108.64 244.16v22.398h77.281c0.55859-7.8398 1.6797-15.121 3.3594-22.398z"/>
  <path d="m591.36 217.28v-22.398h-100.8c4.4805 7.2812 8.3984 14.559 11.762 22.398z"/>
  <path d="m108.64 194.32v22.398h89.602c3.3594-7.8398 7.2812-15.68 11.762-22.398z"/>
  <path d="m591.36 145.04h-147.28c9.5195 6.7188 18.48 14 26.32 22.398h121.52l0.003906-22.398z"/>
  <path d="m108.64 145.04v22.398h121.52c7.8398-8.3984 16.801-16.238 26.32-22.398z"/>
  <use x="70" y="644" xlink:href="#v"/>
  <use x="90.550781" y="644" xlink:href="#b"/>
  <use x="104.359375" y="644" xlink:href="#a"/>
  <use x="123.347656" y="644" xlink:href="#i"/>
  <use x="142.242188" y="644" xlink:href="#c"/>
  <use x="155.628906" y="644" xlink:href="#a"/>
  <use x="174.617188" y="644" xlink:href="#h"/>
  <use x="204.410156" y="644" xlink:href="#g"/>
  <use x="224.453125" y="644" xlink:href="#f"/>
  <use x="252.453125" y="644" xlink:href="#e"/>
  <use x="274.148438" y="644" xlink:href="#a"/>
  <use x="293.140625" y="644" xlink:href="#b"/>
  <use x="306.945312" y="644" xlink:href="#u"/>
  <use x="315.519531" y="644" xlink:href="#t"/>
  <use x="325.117188" y="644" xlink:href="#s"/>
  <use x="70" y="672" xlink:href="#r"/>
  <use x="82.183594" y="672" xlink:href="#b"/>
  <use x="95.992188" y="672" xlink:href="#d"/>
  <use x="115.226562" y="672" xlink:href="#q"/>
  <use x="154.152344" y="672" xlink:href="#c"/>
  <use x="167.535156" y="672" xlink:href="#p"/>
  <use x="187.46875" y="672" xlink:href="#a"/>
  <use x="216.207031" y="672" xlink:href="#o"/>
  <use x="239.640625" y="672" xlink:href="#d"/>
  <use x="258.878906" y="672" xlink:href="#n"/>
  <use x="278.8125" y="672" xlink:href="#m"/>
  <use x="308.492188" y="672" xlink:href="#l"/>
  <use x="329.015625" y="672" xlink:href="#b"/>
  <use x="342.820312" y="672" xlink:href="#d"/>
  <use x="362.058594" y="672" xlink:href="#k"/>
  <use x="371.65625" y="672" xlink:href="#a"/>
  <use x="390.648438" y="672" xlink:href="#j"/>
  <use x="407.242188" y="672" xlink:href="#c"/>
 </g>
</svg>
